<?xml version="1.0" encoding="UTF-8" standalone="no"?>
<svg width="1024px" height="1024px" viewBox="0 0 1024 1024" version="1.1" xmlns="http://www.w3.org/2000/svg" xmlns:xlink="http://www.w3.org/1999/xlink" xmlns:sketch="http://www.bohemiancoding.com/sketch/ns">
    <!-- Generator: Sketch 3.3.2 (12043) - http://www.bohemiancoding.com/sketch -->
    <title>icon@svg</title>
    <desc>Created with Sketch.</desc>
    <defs></defs>
    <g id="Assets" stroke="none" stroke-width="1" fill="none" fill-rule="evenodd" sketch:type="MSPage">
        <g id="icon" sketch:type="MSArtboardGroup">
            <rect id="Rectangle-7" fill="#D23B0F" sketch:type="MSShapeGroup" x="64" y="64" width="896" height="896" rx="100"></rect>
            <g id="logo" sketch:type="MSLayerGroup" transform="translate(178.000000, 332.000000)">
                <path d="M287.265307,0.573065263 L335.05751,0.834603682 L382.914987,1.0961421 L383.111647,67.3307466 C383.304123,118.875575 383.620663,133.759789 384.549987,134.349966 C386.001297,135.271795 446.625518,135.271816 448.948201,134.349966 C449.853675,133.990592 470.124219,105.160249 493.994378,70.2730538 C517.864537,35.3858374 538.408941,5.43357893 539.694346,3.71152629 L542.047992,0.573065263 L599.908467,0.834603682 C644.056597,1.02374827 657.768941,1.39460974 657.768941,2.27306498 C657.768941,2.90609257 630.074473,42.0102289 596.247239,89.1692046 C562.420214,136.328201 534.604193,175.553566 534.464021,176.392267 C534.324266,177.230969 564.532324,218.324534 601.542944,267.73456 C638.553563,317.144607 668.671032,358.07696 668.491109,358.61916 C668.27269,359.275036 648.339815,359.631419 608.930778,359.796083 L549.697343,360.057622 L521.518965,320.499936 C506.04306,298.742032 483.658,267.305218 471.765495,250.603793 L450.190403,220.199952 L416.977837,220.199952 L383.830712,220.199952 L383.373164,289.899941 L382.915406,359.599929 L335.711719,359.795979 C309.773699,359.933025 288.277061,359.761037 287.919725,359.403671 C287.562599,359.046347 287.265935,278.161197 287.265935,179.661393 L287.265935,0.572960648 L287.265307,0.573065263 Z" id="path3092-path" fill="#FFFFFF" sketch:type="MSShapeGroup"></path>
                <path d="M69.1607387,0.638345252 C111.929946,0.627883716 124.858683,0.886388289 126.106011,1.81526814 C126.993492,2.4760188 148.016472,32.6257283 172.786665,68.8344879 L217.767463,134.676785 L237.511941,134.938323 C252.631348,135.137092 257.545552,135.516888 258.367759,136.507554 C259.129504,137.425616 259.330139,149.455212 259.152308,178.026778 L258.890792,218.303694 L238.492523,218.761386 C224.749111,219.084208 217.769346,219.597431 217.309705,220.330617 C216.93354,220.930879 194.603607,252.437136 167.687098,290.292144 L118.783555,359.076748 L59.8116367,359.076748 C27.3982642,359.076748 0.90499248,358.776209 0.90499248,358.357517 C0.90499248,357.938826 31.1814632,317.167664 68.1801573,267.79984 C105.178642,218.432015 135.455113,177.439739 135.455113,176.719086 C135.455113,175.765245 19.1642676,12.6280614 12.0849176,3.64603707 C11.361459,2.72818368 11.4838486,2.11706255 12.477192,1.48834511 C13.2625777,0.991443041 37.6817116,0.646714482 69.1607387,0.638345252 L69.1607387,0.638345252 Z" id="path3092-path" fill="#E89D7C" sketch:type="MSShapeGroup"></path>
            </g>
        </g>
    </g>
</svg>